# xmcd CD database file
#
# Track frame offsets:
#	150
#	15000
#	34455
#	52975
#	65100
#	76425
#	89625
#	104950
#	117375
#	129525
#	142525
#	160050
#	176700
#	189150
#	205125
#	218550
#
# Disc length: 3066 seconds
#
# Revision: 2
# Processed by: cddbd v1.5.1PL0 Copyright (c) Steve Scherf et al.
# Submitted via: CDex 1.51
#
DISCID=dc0bf810
DTITLE=Various Artist - A Touch Of Country Love
DYEAR=1900
DGENRE=Country
TTITLE0=Bellamy Brothers - If I Said You Had A Beautiful body Would you hold It Against Me
TTITLE1=Ronnie Milsap - Lost In The 50's Tonight (In The Still Of The Night)
TTITLE2=Don Williams - I Believe In You
TTITLE3=Crystal Gayle - Don't It Make My Brown Eyes Blue
TTITLE4=Roy Orbison - Blue Bayou
TTITLE5=Dr. Hook - A Little Bit More
TTITLE6=James Taylor - Fire And Rain
TTITLE7=Charlie Rich - The Most Beautiful Girl
TTITLE8=Glenn Campbell - By The Time I Get To Phoenix
TTITLE9=Bobbie Gentry - I'll Never Fall In Love Again
TTITLE10=Kenny rogers - Lady
TTITLE11=Don McLean - Crying
TTITLE12=Jim Reeves - I Love You Because
TTITLE13=Willy Nelson - Always On My Mind
TTITLE14=Dolly Parton - Here You Come Again
TTITLE15=Jim Croce - I'll Have To Say I Love You In A Song
EXTD=
EXTT0=
EXTT1=
EXTT2=
EXTT3=
EXTT4=
EXTT5=
EXTT6=
EXTT7=
EXTT8=
EXTT9=
EXTT10=
EXTT11=
EXTT12=
EXTT13=
EXTT14=
EXTT15=
PLAYORDER=
